<?xml version="1.0" encoding="UTF-8"?><svg id="Calque_9" xmlns="http://www.w3.org/2000/svg" viewBox="0 0 2000 2000"><defs><style>.cls-1{fill:#fff;}.cls-2{fill:#ff9c00;}</style></defs><path class="cls-2" d="M1000,164.61c-461.37,0-835.39,374.02-835.39,835.39s374.02,835.39,835.39,835.39,835.39-374.02,835.39-835.39S1461.37,164.61,1000,164.61Zm252.47,1053.26c-33.23,24.49-71.29,38.07-110.95,47.15-94.02,21.54-188.27,21.53-282.29,0-39.03-8.94-76.45-22.37-109.42-46.04-26.62-19.11-41.61-43.38-40.31-77.78,1.54-40.78,.36-81.66,.36-122.49v-11.5c7.41,2.12,13.74,3.8,19.99,5.72,87.28,26.88,174.53,53.88,261.9,80.45,5.55,1.69,12.55,1.4,18.16-.31,90.4-27.49,180.69-55.35,271-83.12,2.93-.9,5.93-1.58,9.89-2.63v33.26c0,34.19-1.1,68.42,.31,102.55,1.37,32.97-13.51,56.21-38.65,74.74Zm223.75-309.98c-154.08,58.67-311.98,105.69-469.56,153.68-3.39,1.03-7.58,1.46-10.87,.45-98.83-30.36-197.6-60.93-296.36-91.5-3.56-1.1-6.99-2.61-12.47-4.68,15.35-5.07,28.56-9.98,42.1-13.7,7.48-2.06,11.12-6.04,12.08-14.45-21.73,4.87-42.97,9.5-64.09,14.63-1.59,.39-3.19,4.3-3.33,6.65-4.04,70.17-7.81,140.36-12.04,210.52-.21,3.48-3.3,8.35-6.38,9.84-27.15,13.23-54.5,11.66-81.38-.95-2.52-1.18-5.07-5.94-4.83-8.8,1.81-21.67,2.44-43.68,6.96-64.83,11.07-51.84,31.64-100.53,51.67-149.45,7.3-17.83,16.26-28.51,35.72-29,1.48-.04,2.94-1.01,6.6-2.36-11.08-8.77-21.92-1.11-31.92-2.75-14.89-2.44-15.13,11.27-21.23,19.83-33.5-11.98-66.89-23.93-102.42-36.63,4.85-2.1,7.58-3.39,10.38-4.47,155.8-59.98,311.59-119.97,467.5-179.69,4.49-1.72,10.75-1.91,15.18-.22,156.81,59.99,313.51,120.28,470.21,180.55,2.03,.78,3.98,1.77,7.78,3.46-4.01,1.68-6.63,2.85-9.3,3.87Z"/><path class="cls-1" d="M1007.54,720c-4.44-1.7-10.69-1.5-15.18,.22-155.9,59.71-311.7,119.71-467.5,179.69-2.81,1.08-5.53,2.37-10.38,4.47,35.52,12.71,68.92,24.65,102.42,36.63,6.1-8.56,6.34-22.27,21.23-19.83,10,1.64,20.84-6.02,31.92,2.75-3.66,1.34-5.12,2.32-6.6,2.36-19.46,.49-28.42,11.17-35.72,29-20.03,48.93-40.6,97.62-51.67,149.45-4.52,21.15-5.15,43.16-6.96,64.83-.24,2.87,2.31,7.62,4.83,8.8,26.88,12.61,54.23,14.18,81.38,.95,3.08-1.5,6.17-6.37,6.38-9.84,4.22-70.16,7.99-140.35,12.04-210.52,.14-2.36,1.73-6.27,3.33-6.65,21.12-5.13,42.36-9.76,64.09-14.63-.95,8.41-4.6,12.4-12.08,14.45-13.54,3.72-26.75,8.63-42.1,13.7,5.48,2.07,8.91,3.58,12.47,4.68,98.76,30.58,197.53,61.14,296.36,91.5,3.29,1.01,7.49,.58,10.87-.45,157.58-47.99,315.48-95.01,469.56-153.68,2.68-1.02,5.29-2.2,9.3-3.87-3.8-1.7-5.75-2.68-7.78-3.46-156.7-60.27-313.4-120.56-470.21-180.55Z"/><path class="cls-1" d="M1290.8,1040.59v-33.26c-3.96,1.05-6.96,1.73-9.89,2.63-90.32,27.76-180.6,55.63-271,83.12-5.61,1.71-12.61,1.99-18.16,.31-87.38-26.57-174.62-53.57-261.9-80.45-6.25-1.92-12.58-3.61-19.99-5.72v11.5c0,40.83,1.18,81.71-.36,122.49-1.3,34.4,13.69,58.67,40.31,77.78,32.97,23.67,70.39,37.1,109.42,46.04,94.02,21.54,188.27,21.54,282.29,0,39.66-9.09,77.72-22.66,110.95-47.15,25.14-18.52,40.01-41.77,38.65-74.74-1.42-34.13-.31-68.36-.31-102.55Z"/></svg>