<?xml version="1.0" encoding="UTF-8"?><svg id="Code" xmlns="http://www.w3.org/2000/svg" viewBox="0 0 2000 2000"><defs><style>.cls-1{fill:#fff;}.cls-2{fill:#ff9c00;}</style></defs><path class="cls-2" d="M987.3,164.61c-461.37,0-835.39,374.02-835.39,835.39s374.02,835.39,835.39,835.39,835.39-374.02,835.39-835.39S1448.68,164.61,987.3,164.61Zm-136.47,733.32c0,8.36-5.06,15.88-12.79,19.05l-158.56,64.81c-17.06,6.97-17.05,31.14,.02,38.1l158.53,64.62c7.75,3.16,12.81,10.69,12.81,19.05v8.91c0,14.65-14.87,24.6-28.41,19.03l-246.45-101.47c-7.71-3.17-12.74-10.69-12.74-19.03v-21c0-8.35,5.05-15.87,12.77-19.04l246.45-101.05c13.54-5.55,28.38,4.41,28.38,19.04v8.97Zm212.98-66.3l-131.56,351.18c-3.01,8.03-10.69,13.36-19.27,13.36h0c-14.36,0-24.31-14.34-19.27-27.79l131.56-351.18c3.01-8.03,10.69-13.36,19.27-13.36,14.36,0,24.31,14.34,19.27,27.79Zm347.57,179.37c0,8.34-5.03,15.85-12.74,19.03l-246.45,101.47c-13.54,5.58-28.41-4.38-28.41-19.03v-8.9c0-8.37,5.07-15.91,12.82-19.06l158.88-64.62c17.09-6.95,17.1-31.15,.02-38.11l-158.92-64.81c-7.74-3.16-12.81-10.69-12.81-19.05v-8.96c0-14.63,14.84-24.59,28.38-19.04l246.45,101.05c7.72,3.17,12.77,10.69,12.77,19.04v21Z"/><path class="cls-1" d="M822.45,869.91l-246.45,101.05c-7.73,3.17-12.77,10.69-12.77,19.04v21c0,8.34,5.03,15.85,12.74,19.03l246.45,101.47c13.54,5.58,28.41-4.38,28.41-19.03v-8.91c0-8.36-5.06-15.9-12.81-19.05l-158.53-64.62c-17.07-6.96-17.08-31.13-.02-38.1l158.56-64.81c7.74-3.16,12.79-10.69,12.79-19.05v-8.97c0-14.63-14.84-24.59-28.38-19.04Z"/><path class="cls-1" d="M1044.54,803.83c-8.58,0-16.26,5.32-19.27,13.36l-131.56,351.18c-5.04,13.45,4.91,27.79,19.27,27.79h0c8.58,0,16.26-5.32,19.27-13.36l131.56-351.18c5.04-13.45-4.91-27.79-19.27-27.79Z"/><path class="cls-1" d="M1398.61,970.96l-246.45-101.05c-13.54-5.55-28.38,4.41-28.38,19.04v8.96c0,8.36,5.06,15.89,12.81,19.05l158.92,64.81c17.08,6.97,17.07,31.16-.02,38.11l-158.88,64.62c-7.75,3.15-12.82,10.69-12.82,19.06v8.9c0,14.65,14.87,24.6,28.41,19.03l246.45-101.47c7.71-3.17,12.74-10.69,12.74-19.03v-21c0-8.35-5.05-15.87-12.77-19.04Z"/></svg>