<?xml version="1.0" encoding="UTF-8"?><svg id="Calque_8" xmlns="http://www.w3.org/2000/svg" viewBox="0 0 2000 2000"><defs><style>.cls-1{fill:#fff;}.cls-2{fill:#ff9c00;}</style></defs><circle class="cls-2" cx="1000" cy="1000" r="835.39"/><g><path class="cls-1" d="M1323.64,691.09c-6.87,19.16-12.56,38.85-20.83,57.38-24.07,53.93-55.21,103.87-88.67,152.4-53.3,77.32-114.61,147.6-185.04,209.81-8.44,7.45-17.36,14.35-26.35,21.75-20.91-51.16-57.5-83.3-111.91-96.37,6.64-9.91,12.68-19.59,19.37-28.81,41.89-57.69,89.02-110.77,141.13-159.39,56.94-53.12,117.54-101.55,184.21-142.04,22.97-13.95,46.46-26.94,72.71-33.95h15.38v19.22Z"/><path class="cls-1" d="M676.36,1327.88c26.56-10.71,38.64-33.75,49.67-57.53,6.43-13.85,9.39-28.58,10.58-43.89,3.75-48.13,45.14-85.23,93.6-84.53,48.77,.71,88.46,38.44,91.42,86.9,3.19,52.19-36.48,97.46-88.4,98.67-50.36,1.17-100.76,.33-151.14,.37-1.91,0-3.83,0-5.74,0Z"/><path class="cls-1" d="M854.62,1117.76c3.92-19.43,11.32-36.59,20.13-53.18,.83-1.56,4.1-3.02,5.89-2.68,48.3,9.05,80.83,36.84,97.57,83,.6,1.65,.02,5.1-1.15,5.8-14.2,8.49-28.61,16.62-43.59,25.2-18.91-30.67-44.69-49.91-78.85-58.14Z"/></g></svg>