<?xml version="1.0" encoding="UTF-8"?><svg id="Logos" xmlns="http://www.w3.org/2000/svg" viewBox="0 0 2000 2000"><defs><style>.cls-1{fill:#fff;}.cls-2{fill:#935700;}.cls-3{fill:#ff9c00;}</style></defs><path class="cls-3" d="M1018.49,942.62c3.7,0,6.97-.86,9.8-2.6,2.83-1.73,4.82-3.79,5.95-6.18v-12.8h-12.18c-4.83,0-8.33,1.16-10.47,3.49s-3.22,5.28-3.22,8.86c0,2.75,.94,4.97,2.82,6.67,1.88,1.7,4.31,2.55,7.3,2.55Z"/><path class="cls-3" d="M951.93,1028.66c-2.32,0-4.03,.74-5.14,2.21s-1.74,3.47-1.91,5.99l.09,.21h12.55v-1.12c0-2.41-.42-4.23-1.27-5.46s-2.28-1.85-4.32-1.85Z"/><path class="cls-3" d="M705.2,894.76c-1.8-.16-3.25-.53-4.62-.34-5.33,.71-6.86-1.69-6.58-6.75,.38-6.62,.2-13.3,.06-19.95-.06-3.5,1.37-4.73,4.84-4.71,14.96,.12,29.95-.07,44.91,.24,1.53,.04,4.13,2.59,4.29,4.17,.55,5.35,.23,10.79,.23,16.2q0,10.05-9.91,11.04c-.35,.04-.68,.42-1.26,.78v17.64c14.52-3.74,26.01-21.4,24.2-36.74-2.22-18.73-17.71-33.33-36.83-34.74-21.27-1.55-39.24,9.95-44.48,28.47-5.24,18.49,6.96,40.08,25.14,43.89v-19.2Z"/><path class="cls-3" d="M906.25,1029.65c-1.15-.66-2.46-.99-3.95-.99-2.58,0-4.44,1.19-5.59,3.57-1.15,2.38-1.72,5.53-1.72,9.45v.9c0,3.78,.55,6.73,1.65,8.83s2.96,3.16,5.56,3.16c1.52,0,2.86-.28,4.02-.84,1.16-.56,2.11-1.38,2.86-2.47v-18.78c-.74-1.23-1.69-2.18-2.84-2.84Z"/><path class="cls-3" d="M1139.47,1035.12c-5.97,0-10.22,2.39-12.76,7.16-2.54,4.78-3.8,11.07-3.8,18.89v1.88c0,8.12,1.27,14.49,3.8,19.11,2.54,4.63,6.85,6.94,12.94,6.94s10.15-2.33,12.71-6.98c2.57-4.66,3.85-11.01,3.85-19.07v-1.88c0-7.88-1.28-14.19-3.85-18.93-2.57-4.74-6.86-7.12-12.89-7.12Z"/><path class="cls-3" d="M1249.41,1037.18c-2.39-1.37-5.13-2.06-8.24-2.06-5.37,0-9.25,2.48-11.64,7.43-2.39,4.95-3.58,11.52-3.58,19.7v1.88c0,7.88,1.15,14.01,3.45,18.4,2.3,4.39,6.16,6.58,11.59,6.58,3.16,0,5.95-.58,8.37-1.75,2.42-1.16,4.4-2.88,5.95-5.15v-39.12c-1.55-2.57-3.52-4.53-5.91-5.91Z"/><path class="cls-3" d="M1000,307.39h0c-382.52,0-692.61,310.09-692.61,692.61h0c0,382.52,310.09,692.61,692.61,692.61h0c382.52,0,692.61-310.09,692.61-692.61h0c0-382.52-310.09-692.61-692.61-692.61Zm306.65,605.25h6.82v-11.56h15.27v11.56h7.73v10.06h-7.73v21.31c0,1.66,.35,2.86,1.06,3.59s1.66,1.1,2.87,1.1c.78,0,1.41-.03,1.87-.09s1.06-.17,1.78-.34l1.04,10.74c-1.54,.37-2.92,.64-4.16,.79-1.23,.16-2.7,.24-4.38,.24-5.03,0-8.85-1.27-11.45-3.82-2.61-2.55-3.91-6.59-3.91-12.12v-21.4h-6.82v-10.06Zm-99.71,0h14.32l.59,6.53c1.6-2.32,3.57-4.13,5.92-5.44,2.35-1.3,4.97-1.96,7.86-1.96,4.79,0,8.53,1.55,11.23,4.64,2.7,3.09,4.04,8.01,4.04,14.74v27.97h-15.27v-28.02c0-2.95-.5-5.05-1.49-6.3-.99-1.25-2.44-1.87-4.34-1.87-1.63,0-3.09,.27-4.38,.82-1.3,.54-2.38,1.32-3.25,2.32v33.05h-15.23v-46.5Zm-24.4-20.54h15.32v9.75h-15.32v-9.75Zm0,20.54h15.32v46.5h-15.32v-46.5Zm-80.37,0h14.37l.54,6.15c1.54-2.23,3.47-3.96,5.81-5.18,2.33-1.22,5.01-1.83,8.02-1.83s5.66,.63,7.86,1.89c2.2,1.26,3.86,3.18,4.97,5.76,1.51-2.44,3.44-4.32,5.81-5.65,2.36-1.33,5.13-2,8.29-2,4.76,0,8.5,1.63,11.23,4.88,2.73,3.25,4.09,8.26,4.09,15.02v27.46h-15.32v-27.46c0-3.32-.49-5.61-1.47-6.85-.98-1.25-2.45-1.87-4.4-1.87-1.48,0-2.78,.25-3.91,.75-1.13,.5-2.09,1.2-2.87,2.08,0,.49,.02,.91,.05,1.27,.03,.36,.05,.71,.05,1.05v31.03h-15.27v-27.46c0-3.35-.48-5.64-1.45-6.88-.96-1.23-2.45-1.85-4.47-1.85-1.39,0-2.64,.25-3.77,.75-1.13,.5-2.09,1.2-2.87,2.08v33.35h-15.27v-46.5Zm-218.96-80.67h30.26v107.07h55.95v23.28h-86.21v-130.35Zm-55.59,267.55c-33.6,61.14-110.86,82.14-170.95,47.11-62.06-36.17-84.33-124.37-30.51-189.61-3.89-.79-6.59-1.05-9.08-1.92-2.74-.95-6.42-1.83-7.58-3.91-1.14-2.05-.6-6.33,.94-8.29,3.81-4.88,8.3-9.4,13.18-13.21,1.96-1.54,6.14-1.93,8.4-.89,1.92,.89,2.81,4.5,3.68,7.06,.93,2.71,1.28,5.62,2.22,9.97,16.62-13.48,33.39-22.26,52.93-27.1-2.05-1.8-3.61-3.09-5.1-4.45-14.18-12.91-19.98-28.77-14.52-47.29,5.62-19.04,19.35-30.26,38.69-33.9,15.58-2.92,30.24,.02,42.95,10.11,23.76,18.86,23.98,52.65,.51,71.97-1.26,1.04-2.57,2.03-4.45,3.52,44.28,13.2,74.7,40.59,88.52,84.28,10.51,33.25,7.03,65.86-9.83,96.54Zm95.98-34.68h-12.72l-.99-5.67c-1.4,2.12-3.04,3.75-4.92,4.88-1.88,1.13-4.03,1.7-6.47,1.7-5.73,0-10.17-2.12-13.32-6.36-3.15-4.24-4.73-9.84-4.73-16.8v-.9c0-7.25,1.58-13.09,4.75-17.53,3.17-4.44,7.63-6.66,13.39-6.66,2.15,0,4.09,.49,5.82,1.48,1.73,.99,3.29,2.4,4.66,4.23v-25.4h14.52v67.04Zm48.09-18.69h-26.64l-.09,.26c.23,2.44,1.13,4.4,2.71,5.91,1.58,1.5,3.84,2.26,6.79,2.26,2.78,0,5.09-.23,6.94-.69,1.85-.46,3.96-1.19,6.34-2.19l3.48,8.85c-2.01,1.46-4.7,2.69-8.08,3.7-3.38,1-6.93,1.5-10.66,1.5-7.05,0-12.57-2.13-16.57-6.4-4-4.27-5.99-9.67-5.99-16.2v-1.63c0-7.1,1.88-12.89,5.65-17.36s9.22-6.69,16.35-6.66c6.27,0,11.14,1.88,14.59,5.63s5.18,8.9,5.18,15.43v7.61Zm6.42-111.14c0-9.61,3.61-17.02,10.83-22.25,7.22-5.22,18.17-7.83,32.86-7.83h12.44v-6.89c0-4.12-.98-7.28-2.95-9.49-1.97-2.21-4.98-3.31-9.04-3.31-3.52,0-6.13,.82-7.83,2.46-1.7,1.64-2.55,4.19-2.55,7.65l-29.36-.09-.18-.54c-.42-8.83,3.27-16.22,11.06-22.16,7.79-5.94,18.07-8.91,30.84-8.91,12,0,21.71,2.99,29.14,8.95,7.43,5.97,11.15,14.5,11.15,25.6v36.53c0,5.13,.43,9.91,1.3,14.32,.87,4.42,2.16,8.83,3.89,13.25l-29.9-.09c-1.13-2.03-2.1-4.33-2.91-6.89-.81-2.57-1.42-5.25-1.84-8.06-2.63,5.13-5.86,9.24-9.71,12.31-3.85,3.07-8.88,4.61-15.08,4.61-10.15,0-18.04-2.61-23.68-7.83-5.64-5.22-8.46-12.34-8.46-21.35Zm53.79,147.2c2.3,4.6,6.43,6.89,12.4,6.89,4.12,0,7.19-1.12,9.22-3.36,2.03-2.24,3.04-5.47,3.04-9.71h27.57l.18,.54c.24,10.56-3.42,19.17-10.97,25.83-7.55,6.66-17.23,9.98-29.05,9.98-14.74,0-26.1-4.55-34.06-13.65-7.97-9.1-11.95-20.96-11.95-35.59v-2.06c0-14.56,3.97-26.41,11.91-35.54,7.94-9.13,19.25-13.7,33.93-13.7,12.29,0,22.13,3.42,29.5,10.25,7.37,6.83,10.94,16.19,10.7,28.07l-.18,.54h-27.57c0-4.6-1.04-8.34-3.13-11.23-2.09-2.89-5.19-4.34-9.31-4.34-5.85,0-9.92,2.34-12.22,7.03-2.3,4.68-3.45,11-3.45,18.93v2.06c0,8.12,1.15,14.47,3.45,19.07Zm154.48-19.16c0,14.62-4.12,26.5-12.35,35.63-8.24,9.13-19.7,13.7-34.38,13.7s-26.41-4.57-34.65-13.7c-8.24-9.13-12.35-21.01-12.35-35.63v-1.88c0-14.56,4.12-26.42,12.35-35.59,8.24-9.16,19.73-13.74,34.47-13.74s26.32,4.58,34.56,13.74c8.24,9.16,12.35,21.02,12.35,35.59v1.88Zm99.19,47.45h-26.5l-2.06-11.82c-2.92,4.42-6.34,7.8-10.25,10.16-3.91,2.36-8.4,3.54-13.47,3.54-11.94,0-21.19-4.42-27.75-13.25-6.57-8.83-9.85-20.5-9.85-35v-1.88c0-15.1,3.3-27.27,9.89-36.53,6.6-9.25,15.89-13.88,27.89-13.88,4.48,0,8.52,1.03,12.13,3.09,3.61,2.06,6.85,5,9.71,8.82v-52.91h30.26v139.66Zm3.09-158.33c-1.45,2.52-3.32,4.46-5.62,5.82s-4.96,2.04-7.97,2.04c-5.06,0-9.03-1.69-11.91-5.07-2.88-3.38-4.31-8.61-4.31-15.68v-26.64h15.23v26.73c0,3.64,.49,6.13,1.47,7.48,.98,1.35,2.49,2.02,4.54,2.02,1.63,0,3.06-.21,4.29-.64,1.23-.43,2.29-1.07,3.16-1.93v-33.65h15.27v46.5h-12.29l-1.85-6.96Zm97.09,119.39h-55.51l-.18,.54c.48,5.07,2.36,9.18,5.64,12.31,3.28,3.13,8,4.7,14.15,4.7,5.79,0,10.61-.48,14.46-1.43,3.85-.95,8.25-2.48,13.21-4.57l7.25,18.44c-4.18,3.04-9.79,5.61-16.83,7.7-7.04,2.09-14.44,3.13-22.2,3.13-14.68,0-26.19-4.45-34.51-13.34-8.33-8.89-12.49-20.14-12.49-33.75v-3.4c0-14.8,3.92-26.86,11.77-36.17,7.85-9.31,19.2-13.93,34.06-13.88,13.07,0,23.2,3.91,30.39,11.73,7.19,7.82,10.79,18.53,10.79,32.14v15.85Zm0-131.12h-28.01l-.09,.26c.24,2.44,1.19,4.4,2.85,5.91,1.66,1.5,4.04,2.26,7.14,2.26,2.92,0,5.35-.23,7.3-.69,1.94-.46,4.16-1.19,6.66-2.19l3.66,8.85c-2.11,1.46-4.94,2.69-8.49,3.7s-7.29,1.5-11.2,1.5c-7.41,0-13.21-2.13-17.42-6.4-4.2-4.27-6.3-9.67-6.3-16.2v-1.63c0-7.1,1.98-12.89,5.94-17.36,3.96-4.47,9.69-6.69,17.19-6.66,6.6,0,11.71,1.88,15.34,5.63s5.44,8.9,5.44,15.43v7.61Z"/><path class="cls-3" d="M1344.58,1035.12c-4.83,0-8.4,1.54-10.7,4.61-2.3,3.07-3.63,7.24-3.98,12.49l.18,.45h26.14v-2.33c0-5.01-.88-8.8-2.64-11.37-1.76-2.57-4.76-3.85-9-3.85Z"/><path class="cls-3" d="M1364.98,922.95c-2.44,0-4.24,.74-5.4,2.21s-1.83,3.47-2.01,5.99l.09,.21h13.19v-1.12c0-2.41-.44-4.23-1.33-5.46-.89-1.23-2.4-1.85-4.54-1.85Z"/><path class="cls-2" d="M748.93,918.7c1.88-1.49,3.19-2.48,4.45-3.52,23.47-19.32,23.25-53.11-.51-71.97-12.71-10.08-27.37-13.03-42.95-10.11-19.34,3.63-33.06,14.85-38.69,33.9-5.46,18.52,.34,34.38,14.52,47.29,1.49,1.36,3.04,2.65,5.1,4.45-19.53,4.84-36.3,13.62-52.93,27.1-.94-4.35-1.3-7.26-2.22-9.97-.87-2.57-1.76-6.17-3.68-7.06-2.26-1.04-6.44-.65-8.4,.89-4.88,3.81-9.36,8.34-13.18,13.21-1.54,1.96-2.08,6.23-.94,8.29,1.16,2.08,4.84,2.96,7.58,3.91,2.49,.87,5.19,1.12,9.08,1.92-53.82,65.24-31.55,153.44,30.51,189.61,60.09,35.03,137.35,14.03,170.95-47.11,16.86-30.68,20.34-63.29,9.83-96.54-13.82-43.69-44.24-71.08-88.52-84.28Zm-68.88-48.64c5.24-18.52,23.21-30.02,44.48-28.47,19.12,1.41,34.6,16.01,36.83,34.74,1.81,15.34-9.68,33-24.2,36.74v-17.64c.57-.37,.9-.75,1.26-.78q9.91-1,9.91-11.04c0-5.4,.32-10.84-.23-16.2-.16-1.58-2.76-4.13-4.29-4.17-14.96-.32-29.95-.12-44.91-.24-3.47-.02-4.9,1.21-4.84,4.71,.13,6.65,.32,13.32-.06,19.95-.28,5.06,1.25,7.46,6.58,6.75,1.37-.18,2.82,.18,4.62,.34v19.2c-18.19-3.81-30.39-25.4-25.14-43.89Zm39.03,279.34c-60.62-.16-109.87-49.77-109.57-110.34,.32-60.36,49.79-109.53,109.98-109.36,60.59,.18,109.85,49.81,109.58,110.4-.28,60.33-49.7,109.46-110,109.3Z"/><path class="cls-1" d="M719.5,929.7c-60.2-.17-109.67,49-109.98,109.36-.31,60.57,48.95,110.18,109.57,110.34,60.3,.16,109.72-48.97,110-109.3,.27-60.59-48.99-110.22-109.58-110.4Zm-82.51,115.34h-17.15v-9.01h17.15v9.01Zm150.41-78.64c1.2,1.44,2.98,3.58,5.18,6.21-3.24,3.18-6.76,6.62-11.28,11.06-1.49-2.41-2.99-4.84-4.84-7.84,2.9-2.49,6.87-5.92,10.94-9.44Zm-71.42-26.65h8.92v15.76h-8.92v-15.76Zm-65.02,172.95c-1.25-1.55-2.91-3.62-4.86-6.03,3.54-3.23,7.43-6.75,11.4-10.37,1.45,1.45,3.41,3.4,5.13,5.11-3.59,3.46-7.22,6.98-11.67,11.28Zm6.33-129.15c-3.89-4.29-7.42-8.18-11.01-12.14,1.78-1.67,3.84-3.58,5.92-5.52,3.51,3.48,7.1,7.08,11.31,11.26-2.09,2.16-3.94,4.06-6.21,6.4Zm67.53,156.35h-8.78v-15.67h8.78v15.67Zm-16.63-102.88c-4.52-3.56-4.38-10.45,.27-13.83,3.82-2.78,9.16-1.99,12.01,1.77l41.07,54.11-53.36-42.06Zm78.58,75.44c-3.31-3.46-6.86-7.16-10.77-11.23,1.61-1.76,3.42-3.72,5.06-5.49,4.02,4.01,7.64,7.6,11.55,11.49-1.69,1.5-3.75,3.36-5.84,5.23Zm16.77-76.46h15.68v8.9h-15.68v-8.9Z"/><rect class="cls-2" x="619.84" y="1036.03" width="17.15" height="9.01"/><rect class="cls-2" x="715.98" y="939.75" width="8.92" height="15.76"/><path class="cls-2" d="M646.28,971.41c3.59,3.96,7.13,7.85,11.01,12.14,2.27-2.35,4.12-4.24,6.21-6.4-4.2-4.18-7.8-7.77-11.31-11.26-2.08,1.94-4.13,3.85-5.92,5.52Z"/><path class="cls-2" d="M792.58,972.61c-2.2-2.63-3.98-4.77-5.18-6.21-4.07,3.52-8.04,6.94-10.94,9.44,1.85,2.99,3.35,5.43,4.84,7.84,4.52-4.44,8.04-7.88,11.28-11.06Z"/><rect class="cls-2" x="803.55" y="1036" width="15.68" height="8.9"/><path class="cls-2" d="M776.01,1101.22c3.91,4.07,7.46,7.77,10.77,11.23,2.09-1.87,4.16-3.73,5.84-5.23-3.91-3.89-7.53-7.48-11.55-11.49-1.64,1.77-3.45,3.73-5.06,5.49Z"/><rect class="cls-2" x="716.05" y="1124.22" width="8.78" height="15.67"/><path class="cls-2" d="M646.1,1106.67c1.96,2.41,3.62,4.47,4.86,6.03,4.45-4.3,8.08-7.82,11.67-11.28-1.72-1.71-3.68-3.65-5.13-5.11-3.97,3.62-7.86,7.14-11.4,10.37Z"/><path class="cls-2" d="M708.47,1023.18c-4.65,3.38-4.78,10.27-.27,13.83l53.36,42.06-41.07-54.11c-2.85-3.76-8.19-4.55-12.01-1.77Z"/><path class="cls-2" d="M909.08,1023.2c-1.38-1.83-2.93-3.24-4.66-4.23-1.73-.99-3.67-1.48-5.82-1.48-5.76,0-10.22,2.22-13.39,6.66-3.17,4.44-4.75,10.28-4.75,17.53v.9c0,6.96,1.58,12.56,4.73,16.8,3.15,4.24,7.59,6.36,13.32,6.36,2.44,0,4.59-.57,6.47-1.7,1.88-1.13,3.52-2.76,4.92-4.88l.99,5.67h12.72v-67.04h-14.52v25.4Zm0,28.06c-.74,1.09-1.7,1.91-2.86,2.47-1.16,.56-2.5,.84-4.02,.84-2.61,0-4.46-1.05-5.56-3.16s-1.65-5.05-1.65-8.83v-.9c0-3.92,.57-7.08,1.72-9.45,1.15-2.38,3.01-3.57,5.59-3.57,1.49,0,2.81,.33,3.95,.99,1.15,.66,2.09,1.6,2.84,2.84v18.78Z"/><path class="cls-2" d="M951.93,1017.49c-7.13-.03-12.58,2.19-16.35,6.66s-5.65,10.26-5.65,17.36v1.63c0,6.53,2,11.93,5.99,16.2,4,4.27,9.52,6.4,16.57,6.4,3.72,0,7.28-.5,10.66-1.5,3.38-1,6.07-2.23,8.08-3.7l-3.48-8.85c-2.38,1-4.49,1.73-6.34,2.19-1.85,.46-4.16,.69-6.94,.69-2.95,0-5.21-.75-6.79-2.26-1.58-1.5-2.48-3.47-2.71-5.91l.09-.26h26.64v-7.61c0-6.53-1.73-11.67-5.18-15.43s-8.32-5.63-14.59-5.63Zm5.59,19.6h-12.55l-.09-.21c.17-2.52,.81-4.52,1.91-5.99s2.81-2.21,5.14-2.21c2.03,0,3.47,.62,4.32,1.85s1.27,3.05,1.27,5.46v1.12Z"/><path class="cls-2" d="M1117.44,925.79c.78-.89,1.74-1.58,2.87-2.08,1.13-.5,2.39-.75,3.77-.75,2.02,0,3.51,.62,4.47,1.85,.96,1.23,1.45,3.52,1.45,6.88v27.46h15.27v-31.03c0-.34-.02-.69-.05-1.05-.03-.36-.05-.78-.05-1.27,.78-.89,1.74-1.58,2.87-2.08,1.13-.5,2.43-.75,3.91-.75,1.96,0,3.43,.62,4.4,1.87,.98,1.25,1.47,3.53,1.47,6.85v27.46h15.32v-27.46c0-6.76-1.36-11.77-4.09-15.02-2.73-3.25-6.47-4.88-11.23-4.88-3.16,0-5.93,.67-8.29,2-2.36,1.33-4.3,3.22-5.81,5.65-1.11-2.58-2.77-4.5-4.97-5.76-2.2-1.26-4.82-1.89-7.86-1.89s-5.68,.61-8.02,1.83c-2.33,1.22-4.27,2.94-5.81,5.18l-.54-6.15h-14.37v46.5h15.27v-33.35Z"/><rect class="cls-2" x="1182.55" y="912.64" width="15.32" height="46.5"/><rect class="cls-2" x="1182.55" y="892.1" width="15.32" height="9.75"/><path class="cls-2" d="M1222.17,926.09c.87-1,1.96-1.78,3.25-2.32,1.3-.54,2.76-.82,4.38-.82,1.9,0,3.34,.62,4.34,1.87,.99,1.25,1.49,3.34,1.49,6.3v28.02h15.27v-27.97c0-6.73-1.35-11.65-4.04-14.74-2.7-3.09-6.44-4.64-11.23-4.64-2.89,0-5.51,.65-7.86,1.96-2.35,1.3-4.32,3.12-5.92,5.44l-.59-6.53h-14.32v46.5h15.23v-33.05Z"/><path class="cls-2" d="M1302.81,912.64h-15.27v33.65c-.87,.86-1.93,1.5-3.16,1.93-1.23,.43-2.67,.64-4.29,.64-2.05,0-3.56-.67-4.54-2.02-.98-1.35-1.47-3.84-1.47-7.48v-26.73h-15.23v26.64c0,7.08,1.44,12.3,4.31,15.68,2.88,3.38,6.85,5.07,11.91,5.07,3.01,0,5.67-.68,7.97-2.04s4.18-3.3,5.62-5.82l1.85,6.96h12.29v-46.5Z"/><path class="cls-2" d="M1313.47,944.09c0,5.53,1.3,9.57,3.91,12.12,2.61,2.55,6.42,3.82,11.45,3.82,1.69,0,3.15-.08,4.38-.24,1.23-.16,2.62-.42,4.16-.79l-1.04-10.74c-.72,.17-1.32,.29-1.78,.34s-1.09,.09-1.87,.09c-1.2,0-2.16-.37-2.87-1.1s-1.06-1.93-1.06-3.59v-21.31h7.73v-10.06h-7.73v-11.56h-15.27v11.56h-6.82v10.06h6.82v21.4Z"/><path class="cls-2" d="M1364.98,911.78c-7.5-.03-13.23,2.19-17.19,6.66-3.96,4.47-5.94,10.26-5.94,17.36v1.63c0,6.53,2.1,11.93,6.3,16.2,4.2,4.27,10.01,6.4,17.42,6.4,3.92,0,7.65-.5,11.2-1.5s6.39-2.23,8.49-3.7l-3.66-8.85c-2.5,1-4.72,1.73-6.66,2.19-1.94,.46-4.37,.69-7.3,.69-3.1,0-5.48-.75-7.14-2.26-1.66-1.5-2.61-3.47-2.85-5.91l.09-.26h28.01v-7.61c0-6.53-1.81-11.67-5.44-15.43s-8.74-5.63-15.34-5.63Zm5.87,19.6h-13.19l-.09-.21c.18-2.52,.85-4.52,2.01-5.99s2.96-2.21,5.4-2.21c2.14,0,3.65,.62,4.54,1.85,.89,1.23,1.33,3.05,1.33,5.46v1.12Z"/><polygon class="cls-2" points="969.43 939.04 913.48 939.04 913.48 831.97 883.22 831.97 883.22 962.32 969.43 962.32 969.43 939.04"/><path class="cls-2" d="M1025.34,959.58c3.85-3.07,7.09-7.18,9.71-12.31,.42,2.81,1.03,5.49,1.84,8.06,.8,2.57,1.78,4.87,2.91,6.89l29.9,.09c-1.73-4.42-3.03-8.83-3.89-13.25-.87-4.42-1.3-9.19-1.3-14.32v-36.53c0-11.1-3.72-19.64-11.15-25.6-7.43-5.97-17.14-8.95-29.14-8.95-12.77,0-23.05,2.97-30.84,8.91-7.79,5.94-11.47,13.33-11.06,22.16l.18,.54,29.36,.09c0-3.46,.85-6.01,2.55-7.65,1.7-1.64,4.31-2.46,7.83-2.46,4.06,0,7.07,1.11,9.04,3.31,1.97,2.21,2.95,5.37,2.95,9.49v6.89h-12.44c-14.68,0-25.64,2.61-32.86,7.83-7.22,5.22-10.83,12.64-10.83,22.25,0,9.01,2.82,16.13,8.46,21.35,5.64,5.22,13.53,7.83,23.68,7.83,6.21,0,11.24-1.54,15.08-4.61Zm-13.74-35.05c2.15-2.33,5.64-3.49,10.47-3.49h12.18v12.8c-1.13,2.39-3.12,4.45-5.95,6.18-2.84,1.73-6.1,2.6-9.8,2.6-2.99,0-5.42-.85-7.3-2.55-1.88-1.7-2.82-3.92-2.82-6.67,0-3.58,1.07-6.54,3.22-8.86Z"/><path class="cls-2" d="M1031.91,1042.15c2.3-4.69,6.37-7.03,12.22-7.03,4.12,0,7.22,1.45,9.31,4.34,2.09,2.89,3.13,6.64,3.13,11.23h27.57l.18-.54c.24-11.88-3.33-21.23-10.7-28.07-7.37-6.83-17.2-10.25-29.5-10.25-14.68,0-25.99,4.57-33.93,13.7-7.94,9.13-11.91,20.98-11.91,35.54v2.06c0,14.62,3.98,26.49,11.95,35.59,7.97,9.1,19.32,13.65,34.06,13.65,11.82,0,21.5-3.33,29.05-9.98,7.55-6.65,11.21-15.26,10.97-25.83l-.18-.54h-27.57c0,4.24-1.02,7.48-3.04,9.71-2.03,2.24-5.1,3.36-9.22,3.36-5.97,0-10.1-2.3-12.4-6.89-2.3-4.6-3.45-10.95-3.45-19.07v-2.06c0-7.94,1.15-14.25,3.45-18.93Z"/><path class="cls-2" d="M1139.47,1011.85c-14.74,0-26.23,4.58-34.47,13.74-8.24,9.16-12.35,21.02-12.35,35.59v1.88c0,14.62,4.12,26.5,12.35,35.63,8.24,9.13,19.79,13.7,34.65,13.7s26.14-4.57,34.38-13.7c8.24-9.13,12.35-21.01,12.35-35.63v-1.88c0-14.56-4.12-26.42-12.35-35.59-8.24-9.16-19.76-13.74-34.56-13.74Zm16.74,51.21c0,8.06-1.28,14.41-3.85,19.07-2.57,4.66-6.8,6.98-12.71,6.98s-10.4-2.31-12.94-6.94c-2.54-4.62-3.8-11-3.8-19.11v-1.88c0-7.82,1.27-14.11,3.8-18.89,2.54-4.77,6.79-7.16,12.76-7.16s10.33,2.37,12.89,7.12c2.57,4.75,3.85,11.06,3.85,18.93v1.88Z"/><path class="cls-2" d="M1255.32,1023.75c-2.86-3.82-6.1-6.76-9.71-8.82-3.61-2.06-7.66-3.09-12.13-3.09-12,0-21.29,4.63-27.89,13.88-6.6,9.25-9.89,21.43-9.89,36.53v1.88c0,14.5,3.28,26.17,9.85,35,6.57,8.83,15.82,13.25,27.75,13.25,5.07,0,9.56-1.18,13.47-3.54,3.91-2.36,7.33-5.74,10.25-10.16l2.06,11.82h26.5v-139.66h-30.26v52.91Zm0,58.46c-1.55,2.27-3.54,3.98-5.95,5.15-2.42,1.16-5.21,1.75-8.37,1.75-5.43,0-9.3-2.19-11.59-6.58-2.3-4.39-3.45-10.52-3.45-18.4v-1.88c0-8.18,1.19-14.74,3.58-19.7,2.39-4.95,6.27-7.43,11.64-7.43,3.1,0,5.85,.69,8.24,2.06,2.39,1.37,4.36,3.34,5.91,5.91v39.12Z"/><path class="cls-2" d="M1344.58,1011.85c-14.86-.06-26.22,4.57-34.06,13.88-7.85,9.31-11.77,21.37-11.77,36.17v3.4c0,13.61,4.16,24.86,12.49,33.75,8.32,8.89,19.83,13.34,34.51,13.34,7.76,0,15.16-1.04,22.2-3.13,7.04-2.09,12.65-4.66,16.83-7.7l-7.25-18.44c-4.95,2.09-9.35,3.61-13.21,4.57-3.85,.96-8.67,1.43-14.46,1.43-6.15,0-10.86-1.57-14.15-4.7-3.28-3.13-5.16-7.24-5.64-12.31l.18-.54h55.51v-15.85c0-13.61-3.6-24.32-10.79-32.14-7.19-7.82-17.32-11.73-30.39-11.73Zm11.64,40.82h-26.14l-.18-.45c.36-5.25,1.69-9.41,3.98-12.49,2.3-3.07,5.86-4.61,10.7-4.61,4.24,0,7.24,1.28,9,3.85,1.76,2.57,2.64,6.36,2.64,11.37v2.33Z"/></svg>